<?xml version="1.0" encoding="UTF-8"?>
<svg xmlns="http://www.w3.org/2000/svg" width="634.05" height="616.89" viewBox="176.64 48.55 634.05 616.89" style="background-color:#FFFFFF">
  <!-- Created using SVG Map Generator: dojo.amcharts.com/svg-map-generator -->
  <style>
    .land { fill: #e0f5f7; stroke: #FFFFFF; stroke-width: 0.1; }
  </style>
  <g id="polygons">
    <path d="M461.257,71.627L456.548,68.442L456.307,65.056L459.082,62.092L461.278,68.839ZM468.627,73.491L461.335,67.973L459.44,60.745L464.81,63.296L467.945,61.763L469.594,62.588L473.921,59.58L476.239,60.658L478.04,64.719L473.861,69.623ZM562.087,115.144L561.7,117.348L553.632,115.834L555.125,108.813L560.69,109.097L558.933,113.215L559.344,115.374ZM577.719,159.343L573.513,247.336L568.19,335.484L515.62,336.224L463.138,335.493L442.451,335.482L428.557,335.585L434.843,172.593L435.857,137.837L436.123,128.012L439.594,127.831L445.827,129.422L446.894,126.059L444.854,122.044L442.038,119.503L444.297,114.454L448.185,111.71L449.937,102.825L453.317,102.695L456.952,99.263L454.671,95.959L454.891,92.662L458.155,91.244L458.681,87.128L462.245,85.238L463.171,81.784L466.127,82.892L469.526,81.286L469.577,77.407L474.637,78.782L476.968,80.15L483.97,79.609L486.04,80.371L488.652,78.344L490.838,78.388L495.316,76.087L495.413,69.887L496.352,68.274L493.22,64.907L491.37,64.179L486.775,65.793L483.336,61.789L485.31,58.411L490.988,58.461L493.528,60.959L496.109,65.487L499.416,62.239L501.319,63.842L503.584,68.824L511.013,71.552L513.977,69.391L514.55,71.917L517.916,71.736L520.298,75.773L525.225,75.866L529.327,74.548L530.84,77.074L534.166,79.581L536.425,79.747L538.967,76.305L542.25,76.453L542.436,73.84L545.499,75.437L543.61,77.591L544.534,79.847L546.96,77.448L549.274,83.392L553.349,82.327L554.562,79.081L551.637,77.728L556.103,73.775L558.382,78.029L561.151,77.818L564.281,81.284L561.436,83.501L558.758,87.714L557.062,92.434L556.667,96.003L554.056,97.81L549.79,96.648L546.43,99.508L545.548,104.443L546.161,106.764L548.227,107.392L545.564,115.428L543.668,116.851L537.991,125.376L538.21,128.594L546.076,135.238L550.673,138.195L551.797,141.632L555.658,143.775L558.652,147.239L562.84,147.43L568.048,151.393L573.793,153.703Z" class="land" id="AU-NT" title="Northern Territory"/>
    <path d="M436.123,128.012L435.857,137.837L434.843,172.593L428.557,335.585L422.817,441.849L415.797,445.504L407.313,449.264L403.074,450.106L396.796,452.575L386.88,453.49L379.224,452.045L373.435,454.007L368.8,457.802L365.513,458.773L356.778,464.356L349.633,465.995L346.826,468.866L344.161,476.71L337.556,483.171L334.962,482.973L331.809,485.275L329.673,482.269L327.011,483.191L319.574,483.305L315.9,485.462L314.476,481.777L310.895,483.053L307.04,481.597L297.009,482.254L290.172,484.441L283.962,483.602L277.952,486.794L275.544,491.119L271.51,494.338L267.053,493.382L262.768,497.621L254.169,503.468L245.837,505.228L242.846,503.934L229.697,503.574L226.089,501.086L222.439,500.215L221.586,498.046L217.691,493.656L212.715,490.617L208.117,489.826L207.529,479.186L208.259,476.047L211.594,478.458L214.787,477.559L219.237,471.192L217.711,460.115L220.305,458.282L219.971,453.583L220.327,445.598L219.489,441.251L215.926,434.134L214.097,428.661L210.26,419.657L209.987,415.351L208.744,411.354L209.585,400.657L207.527,393.346L204.287,389.134L203.827,384.687L199.696,377.153L197.376,374.558L196.531,370.084L197.291,367.386L196.316,362.602L192.226,353.565L188.998,348.397L184.353,342.954L183.515,339.961L185.736,337.714L188.001,340.802L188.438,344.984L189.903,347.715L193.235,344.973L193.37,341.779L188.629,336.894L186.239,330.086L187.934,327.28L191.519,333.42L190.683,337.727L192.443,338.637L196.558,344.116L198.532,342.459L198.231,338.904L199.668,332.65L196.253,328.651L192.837,320.202L191.211,319.102L189.953,312.217L187.075,307.952L186.499,302.454L188.923,293.614L192.271,289.319L192.623,283.098L193.569,280.05L191.138,272.103L193.445,267.055L195.622,260.374L198.668,259.145L197.839,264.07L198.944,270.668L202.387,269.076L203.835,264.371L206.907,257.835L211.518,255.013L213.245,254.871L219.551,251.825L222.232,248.358L225.196,246.579L227.107,243.455L231.244,240.339L235.828,238.552L239.521,235.625L242.143,236.9L245.175,235.114L250.475,237.131L257.494,234.866L261.002,231.167L272.556,228.853L277.065,222.941L278.778,222.766L284.917,224.843L288.161,222.994L295.33,221.821L307.866,215.922L311.874,212.246L315.327,207.179L319.924,196.615L329.138,188.703L329.119,185.874L327.242,184.274L326.268,178.023L326.396,174.392L328.279,169.64L332.612,164.742L336.258,163.206L336.453,160.197L338.61,158.367L341.719,162.347L344.892,170.193L348.612,177.223L349.785,171.471L349.13,168.99L352.253,165.551L349.835,161.551L351.552,155.35L353.624,155.867L355.66,153.587L358.835,154.648L359.795,156.541L362.265,155.584L363.103,150.926L364.824,147.834L362.723,146.492L362.356,142.845L363.786,139.309L367.235,138.876L367.812,135.123L373.082,131.8L376.488,128.587L374.852,125.711L378.118,121.536L382.122,122.027L382.078,117.554L386.191,120.456L387.066,123.78L389.26,121.391L391.151,114.227L393.35,116.144L394.163,112.746L396.076,113.25L398.319,116.081L401.423,111.277L400.809,108.004L404.175,106.754L406.013,108.993L411.538,110.953L415.14,115.082L419.708,122.628L423.021,124.881L421.245,132.285L427.282,131.286L426.44,126.689L428.813,125.917ZM183.248,338.198L180.539,334.004L178.741,328.535L179.998,327.476Z" class="land" id="AU-WA" title="Western Australia"/>
    <path d="M719.395,520.677L717.633,519.85L715.761,515.739L717.301,509.553L721.634,506.596L723.934,508.563L720.622,515.156Z" class="land" id="AU-ACT" title="Australian Capital Territory"/>
    <path d="M729.29,550.377L704.554,537.069L705.034,533.527L703.231,529.475L703.236,523.33L699.36,521.195L694.504,521.519L692.888,523.27L686.876,524.152L680.906,521.793L677.692,523.166L669.419,521.629L666.865,519.056L663.918,519.993L658.363,519.947L657.3,524.103L654.556,524.854L652.261,523.615L648.967,518.104L645.487,514.472L638.229,509.943L635.97,506.937L635.307,503.05L635.85,499.719L630.596,497.785L627.871,495.898L625.949,498.779L623.918,499.41L621.776,494.988L621.987,492.307L620.253,488.682L617.461,487.024L612.862,486.925L609.49,488.671L605.538,486.427L601.862,485.378L610.429,391.546L643.183,391.542L667.149,391.542L686.699,391.542L732.825,391.542L741.494,384.031L745.129,384.588L754.765,383.057L756.794,385.139L761.744,384.7L765.439,386.6L768.988,390.221L769.336,394.555L771.269,393.686L772.99,390.666L775.78,389.414L777.122,391.077L780.234,389.556L781.065,386.507L780.041,383.136L786.681,379.872L788.728,377.771L792.751,379.586L798.197,379.451L799.563,377.775L804.686,375.662L805.752,377.975L804.813,382.043L805.455,385.208L804.754,388.968L801.941,392.359L799.639,397.677L799.918,398.987L797.011,409.34L792.052,420.851L791.259,425.834L792.069,427.953L787.008,441.176L780.775,450.039L780.415,455.128L773.64,460.33L773.698,461.979L768.363,464.188L763.858,471.252L761.927,472.178L761.495,475.61L759.455,477.997L757.622,484.359L751.628,491.117L749.665,495.344L747.579,503.805L743.507,507.808L740.753,513.421L736.054,521.111L734.683,528.333L729.68,539.413L730.628,543.851L729.441,546.086ZM717.633,519.85L719.395,520.677L720.622,515.156L723.934,508.563L721.634,506.596L717.301,509.553L715.761,515.739Z" class="land" id="AU-NSW" title="New South Wales"/>
    <path d="M552.17,517.178L554.396,517.808L553.773,520.78L549.673,519.723L544.692,523.809L543.36,522.304L533.568,523.276L531.194,520.681L532.086,517.923L543.474,514.593L546.596,514.854L547.428,517.506L551.127,518.618ZM422.817,441.849L428.557,335.585L442.451,335.482L463.138,335.493L515.62,336.224L568.19,335.484L614.76,335.487L610.429,391.546L601.862,485.378L601.522,484.842L593.48,560.633L589.445,560.776L584.764,556.869L581.929,550.714L580.099,550.003L577.053,544.556L577.604,539.381L579.497,537.019L579.388,532.549L577.412,526.126L573.824,520.554L573.688,516.47L574.584,510.563L572.517,509.486L568.696,511.197L568.743,513.972L564.716,513.626L561.72,515.763L556.252,516.063L556.163,513.516L560.805,509.991L562.507,504.047L562.753,498.526L559.842,493.885L557.665,487.447L554.635,492.867L553.408,498.194L549.564,506.967L545.849,505.819L541.795,508.209L536.733,508.276L538.932,505.442L539.419,502.815L546.726,501.659L547.8,497.215L548.909,487.602L550.673,482.764L556.45,476.704L554.873,471.453L558.648,468.679L554.734,466.129L551.95,466.818L548.321,471.87L547.747,474.278L543.964,479.586L541.101,478.975L539.596,481.327L535.093,483.658L531.457,486.611L528.802,491.124L524.396,494.945L521.94,500.135L519.844,502.72L516.058,496.942L515.895,490.324L514.998,485.05L511.911,480.61L509.182,478.169L509.746,476.372L507.839,469.572L506.162,468.877L502.06,470.05L500.781,462.672L502.128,458.582L499.846,456.058L495.746,457.709L495.741,452.274L492.589,449.423L490.597,451.509L485.768,451.154L480.261,446.772L475.746,446.703L471.182,448.093L465.053,442.402L455.88,437.766L450.294,440.312L442.235,439.675L426.391,441.208Z" class="land" id="AU-SA" title="South Australia"/>
    <path d="M593.48,560.633L601.522,484.842L601.862,485.378L605.538,486.427L609.49,488.671L612.862,486.925L617.461,487.024L620.253,488.682L621.987,492.307L621.776,494.988L623.918,499.41L625.949,498.779L627.871,495.898L630.596,497.785L635.85,499.719L635.307,503.05L635.97,506.937L638.229,509.943L645.487,514.472L648.967,518.104L652.261,523.615L654.556,524.854L657.3,524.103L658.363,519.947L663.918,519.993L666.865,519.056L669.419,521.629L677.692,523.166L680.906,521.793L686.876,524.152L692.888,523.27L694.504,521.519L699.36,521.195L703.236,523.33L703.231,529.475L705.034,533.527L704.554,537.069L729.29,550.377L726.293,551.268L724.258,553.793L720.811,555.411L703.574,556.123L698.22,557.625L691.384,561.547L680.1,571.547L669.592,573.51L670.861,576.465L673.704,574.407L673.244,579.429L671.079,580.428L668.743,575.155L665.18,575.359L664.366,571.558L660.617,571.798L658.669,569.58L661.152,566.395L659.851,563.658L657.012,563.855L653.044,568.681L651.102,568.839L655.397,561.986L653.646,557.432L651.371,557.627L646.469,561.318L647.604,565.009L644.023,565.193L638.653,568.444L634.899,572.381L630.072,575.402L623.221,571.276L619.714,570.141L613.871,566.202L610.532,566.874L607.851,564.868L603.62,564.697L601.723,567.192L596.632,562.424Z" class="land" id="AU-VIC" title="Victoria"/>
    <path d="M802.678,331.681L800.959,327.243L803.242,323.14L803.206,321.127L805.739,318.226L808.596,317.08L803.86,326.834ZM804.686,375.662L799.563,377.775L798.197,379.451L792.751,379.586L788.728,377.771L786.681,379.872L780.041,383.136L781.065,386.507L780.234,389.556L777.122,391.077L775.78,389.414L772.99,390.666L771.269,393.686L769.336,394.555L768.988,390.221L765.439,386.6L761.744,384.7L756.794,385.139L754.765,383.057L745.129,384.588L741.494,384.031L732.825,391.542L686.699,391.542L667.149,391.542L643.183,391.542L610.429,391.546L614.76,335.487L568.19,335.484L573.513,247.336L577.719,159.343L580.679,162.185L585.237,163.682L587.661,163.524L593.432,165.754L595.357,169.015L597.017,174.01L599.779,174.694L602.492,177.331L605.569,178.346L608.073,180.616L610.467,181.026L614.686,180.171L621.786,176.048L624.138,167.654L628.156,162.12L632.365,150.403L632.092,147.265L633.345,140.385L637.002,130.903L635.635,126.012L635.127,120.761L636.442,116.563L636.343,113.025L634.779,108.612L636.149,103.121L638.677,97.937L637.22,92.962L641.468,87.126L638.793,83.011L640.754,78.596L643.08,76.279L644.084,71.067L646.801,62.967L647.281,55.554L650.592,54.101L652.317,50.651L654.984,51.414L654.847,53.675L656.946,55.793L658.634,63.315L658.261,71.526L659.936,73.277L663.568,74.394L661.923,77.234L661.402,80.84L664.506,82.304L664.492,84.247L666.822,86.091L665.583,90.405L667.977,90.969L667.876,99.545L668.86,101.247L667.602,107.279L669.859,112.242L671.086,119.496L674.674,120.88L677.011,118.877L681.582,116.535L683.593,118.477L685.174,122.176L688.613,123.307L689.495,125.83L694.989,129.398L693.532,132.912L694.233,136.57L693.484,138.716L694.983,144.073L694.813,147.443L696.291,150.565L695,157.226L700.934,166.015L704.05,174.418L704.854,180.513L704.414,185.434L702.776,190.691L705.696,195.415L707.567,196.233L706.181,202.158L708.77,206.21L715.401,210.532L721.047,212.82L723.875,212.571L725.669,214.863L727.117,220.255L731.759,222.006L735.629,222.539L738.345,227.371L740.207,225.164L743.903,227.855L745.166,231.815L741.877,233.995L742.645,236.9L749.788,243.66L749.914,247.364L752.678,253.032L752.206,256.589L754.053,265.173L755.553,267.361L759.064,267.361L761.815,263.857L763.381,268.128L767.54,270.869L769.132,266.998L771.216,269.056L770.704,271.149L772.554,274.476L770.95,281.911L772.102,288.905L774.456,289.866L776.341,294.271L780.035,297.745L784.07,297.938L787.58,302.213L790.012,309.5L794.212,312.34L795.189,316.775L797.301,321.394L800.899,322.212L800.287,330.551L801.825,333.45L803.954,334.548L801.577,341.256L801.881,349.13L801.419,355.719L799.339,357.475L799.54,360.027L802.17,363.136L804.168,370.023L803.551,372.519ZM595.726,163.18L596.12,160.197L598.474,157.626L602.118,156.722L602.781,158.371L600.45,161.448ZM777.272,294.163L775.05,290.777L777.31,289.351L778.393,292.031ZM804.003,367.833L805.042,361.948L806.698,361.985Z" class="land" id="AU-QLD" title="Queensland"/>
    <path d="M667.429,663.336L662.992,662.202L654.99,661.134L649.966,651.59L647.814,649.15L646.06,644.834L645.943,639.323L647.502,636.885L646.741,632.403L643.959,628.25L641.276,619.074L641.009,613.795L643.633,610.039L651.004,611.421L663.609,617.97L669.343,617.87L676.218,614.627L683.135,614.792L684.975,612.35L688.022,613.086L691.531,610.371L694.298,612.276L695.475,614.984L694.057,618.162L694.365,621.256L692.252,630.12L688.675,635.704L685.146,646.771L685.127,651.547L679.528,648.782L678.525,651.584L673.55,654.431L670.973,657.285ZM694.502,601.643L691.975,596.106L690.117,594.297L693.583,591.47L697.557,595.924L697.772,600.118ZM632.678,599.085L631.896,595.214L634.206,588.829L636.583,590.303L636.502,595.25Z" class="land" id="AU-TAS" title="Tasmania"/>
  </g>
</svg>